<?xml version="1.0" encoding="UTF-8"?><svg id="Layer_2" xmlns="http://www.w3.org/2000/svg" viewBox="0 0 319.72 147.76"><defs><style>.cls-1{fill:#0b4686;}.cls-1,.cls-2{stroke-width:0px;}.cls-2{fill:#eb5d0b;}</style></defs><g id="Livello_1"><path class="cls-1" d="m319.33,134.87c-1.47-1.45-3.39-2.18-5.31-2.18-5.05,0-7.56,3.72-7.56,7.74,0,3.76,2.18,7.29,7.56,7.29,2.51,0,4.29-.96,5.7-2.57v-6.02h-6.13v2.41h3.66v2.53c-1.12.9-2.1,1.15-3.23,1.15-3.55,0-4.92-2.43-4.92-4.78,0-2.94,1.86-5.27,4.92-5.27,1.25,0,2.68.51,3.64,1.43l1.67-1.72Zm-19.5,7.08l-7.01-8.87h-2.18v14.31h2.69v-9.65l7.52,9.65h1.67v-14.31h-2.69v8.87Zm-13.97-8.87h-2.67v14.31h2.67v-14.31Zm-7.27,2.37c-1.08-2.2-3.39-2.84-5.62-2.84-2.64.02-5.53,1.23-5.53,4.16,0,3.21,2.69,3.98,5.62,4.33,1.9.21,3.31.76,3.31,2.1,0,1.55-1.59,2.15-3.29,2.15s-3.39-.69-4.02-2.27l-2.24,1.16c1.06,2.61,3.31,3.51,6.23,3.51,3.19,0,6-1.37,6-4.55,0-3.41-2.78-4.19-5.76-4.55-1.72-.2-3.19-.55-3.19-1.8,0-1.06.96-1.9,2.96-1.9,1.55,0,2.9.78,3.39,1.59l2.14-1.1Zm-18.4,6.51l-7.01-8.87h-2.18v14.31h2.69v-9.65l7.52,9.65h1.67v-14.31h-2.69v8.87Zm-13.95,2.79h-8.03v-3.23h7.74v-2.51h-7.74v-3.31h8.03v-2.61h-10.7v14.31h10.7v-2.65Z"/><path class="cls-2" d="m231,135.44c-1.08-2.2-3.39-2.84-5.62-2.84-2.64.02-5.53,1.23-5.53,4.16,0,3.21,2.69,3.98,5.61,4.33,1.9.2,3.31.76,3.31,2.1,0,1.55-1.59,2.14-3.29,2.14s-3.39-.69-4.02-2.27l-2.25,1.16c1.06,2.61,3.31,3.51,6.23,3.51,3.19,0,6-1.37,6-4.55,0-3.41-2.78-4.19-5.76-4.56-1.72-.2-3.19-.55-3.19-1.8,0-1.06.96-1.9,2.96-1.9,1.55,0,2.9.78,3.39,1.59l2.14-1.1Z"/><path class="cls-1" d="m209.74,144.74h-8.03v-3.23h7.74v-2.51h-7.74v-3.31h8.03v-2.61h-10.7v14.31h10.7v-2.65Zm-21.57,2.65h2.69v-11.87h4.53v-2.45h-11.76v2.45h4.53v11.87Zm-14.22-12.13c3.37,0,4.72,2.7,4.68,5.11-.04,2.35-1.31,4.88-4.68,4.88s-4.64-2.51-4.7-4.86c-.06-2.41,1.33-5.13,4.7-5.13m0-2.45c-4.94,0-7.35,3.78-7.35,7.54s2.33,7.37,7.35,7.37,7.29-3.69,7.33-7.39c.04-3.74-2.41-7.51-7.33-7.51m-13.99,14.58h2.69v-14.27h-3.08l-4.47,6.14-4.47-6.14h-3.1v14.27h2.69v-10.38l4.55,6.22h.53l4.66-6.2v10.36Zm-16.59-2.65h-8.03v-3.23h7.74v-2.51h-7.74v-3.31h8.03v-2.61h-10.7v14.31h10.7v-2.65Z"/><path class="cls-2" d="m123.71,135.58c1.7,0,2.45,1.15,2.45,2.3s-.74,2.3-2.45,2.3h-4.11v-4.6h4.11Zm5.86,11.62l-4.33-4.88c2.71-.55,3.61-2.53,3.61-4.5,0-2.48-1.77-4.73-5.14-4.75-2.27.02-4.54,0-6.8,0v14.31h2.69v-4.78h2.6l4.17,4.78h3.2v-.18Z"/><path class="cls-1" d="m22.09,133.07v2.45h4.54v11.87h2.69v-11.87h4.53v-2.45h-11.76Zm21.85,3.01l2.65,6.1h-5.31l2.66-6.1Zm-1.47-3.01l-6.41,14.32h2.92l1.23-2.7h7.48l1.2,2.7h2.94l-6.41-14.32h-2.94Zm12.83,0v14.32h10.05v-2.49h-7.35v-11.83h-2.69Zm14.01,14.32h2.67v-14.32h-2.67v14.32Zm13.66-11.31l2.66,6.1h-5.31l2.66-6.1Zm-1.47-3.01l-6.41,14.32h2.92l1.23-2.7h7.48l1.2,2.7h2.94l-6.41-14.32h-2.94Zm22.02,0v8.87l-7.01-8.87h-2.18v14.32h2.69v-9.65l7.52,9.65h1.67v-14.32h-2.69Z"/><rect class="cls-2" x="15.02" y="133.07" width="2.67" height="14.32"/><path class="cls-2" d="m109.67,49.94l52.16,70.87s2.61,4.07,9.09,4.07h25.75L109.67,49.94Z"/><path class="cls-2" d="m9.11,42.37l12.64.03C10.39,35.49,0,34.21,0,34.21c0,0,6.03,4.61,9.11,8.15"/><path class="cls-1" d="m58.97,70.75l-31.35-24.17h-14.94l34.02,46.59s5.75,8.92,16.9,8.92h42.91l-18.35-28.99s-4.66.64-14.06,1.75c-9.39,1.1-15.13-4.1-15.13-4.1"/><path class="cls-1" d="m155.96,61.09l21.09-2.58L106.51,12.16C77.36-5.23,40.02,1.14,40.02,1.14c0,0,12.98,5.88,22.53,20.57,8.01,12.33,36.71,58.12,47.47,75.18,2.07,3.28,3.96,5.19,10.43,5.19,7.3,0,20.27-.01,20.27-.01L83.64,21.05s6.39,1.02,13.74,5.63l33.26,21.73-14.7,1.45s53.79,45.47,56.73,47.92c2.94,2.45,5.58,4.31,12.64,4.31h25.04l-54.38-40.99Z"/><path class="cls-1" d="m319.07,89.07s-9.8-11.12-18.47-16.46h-62.84s5.29-5.92,14.55-5.92h38.6s-24.98-15.4-60.72-10.99c-35.74,4.41-63.74,7.89-63.74,7.89l20.19,15.25s2.75,2.1,6.1,2.1,48.86-.46,48.86-.46c0,0-5.24,5.9-14.31,5.9s-30.32.23-30.32.23l17.78,13.54s2.89,1.95,6.27,1.95h61.82c2.09,0,20.57.2,36.25-13.02"/></g></svg>